<svg width="1440" height="1457" viewBox="0 0 1440 1457" fill="none" xmlns="http://www.w3.org/2000/svg">
    <path
        d="M-0.0695496 167.585C14.7659 193.148 35.4118 225.007 55.774 241.522C62.1129 246.667 58.1797 245.045 62.7049 248.427C68.2855 252.426 74.0866 255.352 80.0635 257.722C83.6508 259.142 87.3831 260.381 91.2699 261.548C94.7333 262.557 89.9551 263.155 93.6486 264.149C114.217 269.36 135.939 267.647 158.845 264.037C195.771 258.003 232.308 245.561 268.477 232.275C343.503 204.058 418.392 172.278 496.779 146.043C513.928 140.21 532.907 134.233 552.244 128.329C575.834 121.123 600.065 113.989 621.878 107.077C626.508 105.609 623.313 105.026 624.163 104.645C637.56 98.7158 633.741 102.959 642.959 100.651C679.428 91.5395 719.617 80.3596 754.306 70.2825C769.078 65.9933 753.45 67.2186 768.788 64.7482C769.856 64.5734 766.498 67.1069 770.617 66.1618C779.96 64.0108 797.346 59.0541 804.572 57.2634C818.42 53.8369 820.701 53.2193 833.758 49.8089C851.592 45.1706 873.08 40.4236 892.186 35.2196C896.242 34.1101 890.468 33.915 896.872 32.0146C903.452 30.0649 920.687 25.8991 926.676 24.8165C932.534 23.7608 930.43 25.5798 931.521 25.6084C938.465 25.8162 951.459 21.0714 958.189 18.5776C960.363 17.7841 961.892 17.2127 962.496 17.0487C978.442 12.7561 994.081 9.04527 1009.29 5.93826C1016.95 4.38269 1024.46 2.96977 1032.22 1.79357C1036.13 1.21289 1039.96 0.692126 1044.17 0.37478C1046.23 0.235084 1048.42 0.0993862 1051.12 0.27806C1052.59 0.43164 1054.02 0.42124 1056.82 1.552C1058.16 2.13314 1060.35 3.39213 1061.86 5.86818C1063.34 8.32464 1063.38 10.442 1063.45 10.9086C1064.52 28.2951 1057.91 42.0909 1051.39 55.3598C1046.94 64.0229 1041.88 72.3621 1036.51 80.5186C1021.71 103.159 1001.86 122.1 983.015 137.397C977.026 142.27 971.135 146.822 965.33 151.215C940.447 169.539 916.688 182.823 892.508 200.879C890.241 202.574 892.107 202.41 891.9 203.258C891.818 203.589 891.418 204.077 890.346 204.89C870.607 219.899 851.683 235.983 834.269 253.201C816.335 270.874 802.855 292.365 798.421 316.676C797.567 321.434 796.84 314.996 795.925 319.804C795.202 323.841 794.621 328.306 794.228 333.04C791.424 355.784 818.042 379.067 834.715 386.78C838.184 388.417 841.503 389.285 844.319 389.49C861.436 398.739 886.869 403.43 905.401 407.157C917.451 409.497 905.411 410.008 920.524 410.789C923.937 410.941 919.671 408.954 924.772 409.29C926.742 409.416 928.733 409.546 930.735 409.679C947.783 411.01 965.877 408.945 983.284 405.676C985.293 405.302 987.305 404.904 989.275 404.488C993.483 403.587 992.068 402.389 993.222 401.926C1002.86 398.175 1020.11 397.766 1023.81 397.07C1043.63 393.566 1059.27 388.85 1075.62 383.362C1082.31 381.101 1089.18 378.664 1096.44 376.048C1102.25 373.948 1094.75 374.658 1100.29 372.571C1129.01 361.715 1158.43 349.414 1186.26 337.645C1192.46 335.021 1187.51 339.065 1190.5 337.889C1203.68 332.636 1205.24 328.513 1217.77 323.258C1220.4 322.14 1219.55 324.088 1220.09 323.999C1223.45 323.433 1226.2 322.144 1228.49 320.693C1231.91 318.514 1234.16 316.011 1235.27 315.416C1258.7 302.71 1275.47 298.087 1298.2 285.844C1300.91 284.375 1293.92 286.002 1301.6 281.965C1333.46 265.312 1366.22 247.852 1400.08 232.467C1407.2 229.318 1414.22 226.323 1421.9 223.869C1425.84 222.735 1429.47 221.386 1435.28 221.483C1436.76 221.587 1438.61 221.766 1440.86 223.011C1443.17 224.209 1445.05 227.016 1445.52 229.054C1446.47 233.14 1445.77 235.205 1445.57 237.195C1444.46 244.553 1442.88 251.622 1440.94 258.601C1438.33 267.45 1438.78 260.734 1438.47 261.26C1437.83 262.358 1437.28 263.42 1436.81 264.446C1433.67 271.182 1434.47 276.407 1433.77 278.854C1427.16 300.769 1417.61 320.053 1416.44 336.143C1409.09 356.855 1402.05 377.403 1394.97 398.351C1371.09 469.137 1348.13 540.251 1321.62 609.81C1321.19 610.956 1320.3 608.341 1319.45 610.629C1309.13 638.153 1313.41 633.64 1310.16 653.082C1309.34 657.971 1300.89 670.838 1300.2 671.992C1297.66 676.201 1296.91 670.681 1296.2 672.138C1290.41 684.21 1298.91 684.845 1293.09 701.814C1292.9 702.34 1292.23 699.62 1291.59 700.994C1289.63 705.273 1288.68 709.865 1286.7 714.02C1282.15 723.541 1277.15 725.743 1274.11 741.661C1273.73 743.682 1279.18 742.261 1273.7 757.354C1271.53 763.346 1262.27 790.113 1259.35 797.472C1256.44 804.808 1256.82 799.198 1256.57 799.704C1247.57 819.244 1249.52 811.225 1243.14 820.379C1236.8 829.445 1244.41 828.957 1243.67 833.371C1242.93 837.781 1236.11 851.94 1234.26 855.35C1232.43 858.741 1233.14 853.947 1231.69 857.021C1221.97 877.656 1231.57 867.559 1230.08 874.933C1229.05 879.927 1227.56 884.333 1225.83 888.394C1221.29 899.079 1215.14 907.618 1210.69 918.39C1209.02 922.409 1211.38 919.519 1210.12 923.155C1205.03 937.722 1200.21 945.733 1195.16 962.565C1194.35 965.292 1192 979.622 1186.39 987.221C1185.58 988.306 1185.82 984.326 1183.01 990.376C1178.9 999.249 1171.74 1015.42 1167.86 1025.2C1165.02 1032.38 1170.58 1025.17 1165.97 1033.83C1163.93 1037.63 1166.11 1029.78 1162.31 1037.08C1158.58 1044.32 1149.69 1063.1 1146.09 1070.14C1142.54 1077.21 1145.95 1074.07 1145.76 1074.7C1144.59 1078.46 1138.06 1092.27 1137.38 1093.4C1133.27 1100.87 1129.02 1108.11 1124.7 1115.19C1109.24 1140.17 1093.16 1164.74 1070.94 1183.87C1053.77 1198.78 1033.51 1209.45 1012.4 1217.66C1007.02 1219.77 1001.57 1221.75 996.061 1223.62C991.127 1225.27 994.942 1225.84 994.195 1226.11C977.279 1231.97 989.473 1223.64 977.181 1225.51C979.802 1228.36 972.615 1229.83 960.452 1232.86C954.583 1234.29 958.063 1234.92 957.555 1235.17C953.083 1237.19 949.047 1237.67 946.042 1237.62C943.353 1237.58 941.493 1237.12 940.703 1236.98C934.563 1235.86 928.338 1238.77 924.175 1237.69C920.075 1236.58 929.161 1234.24 917.29 1234.75C913.951 1236.07 923.017 1239.12 913.802 1239.82C901.164 1240.73 884.237 1239.26 867.436 1235.34C846.534 1231.23 829.563 1215.64 818.733 1202.9C812.759 1195.97 807.933 1189.77 804.018 1185.08C786.919 1164.48 780.597 1158.15 770.318 1146.8C770.106 1146.57 769.891 1146.33 769.674 1146.1C750.066 1125.1 755.733 1134.29 742.156 1122.8C728.366 1111.44 738.695 1113.02 737.677 1110.33C736.66 1107.67 733.73 1106.77 731.864 1104.15C729.99 1101.53 735.643 1105.44 730.302 1100.3C724.964 1095.1 708.152 1083.62 705.274 1082.98C699.226 1081.59 704.312 1089.63 689.987 1076.4C689.166 1075.64 692.95 1076.74 689.75 1073.91C682.158 1067.22 674.373 1060.64 666.408 1054.12C647.513 1038.63 627.888 1023.58 608.925 1008.79C605.219 1005.9 609.632 1006.98 607.486 1005.28C585.081 987.656 591.588 996 577.034 989.585C582.376 988.109 576.929 980.895 559.167 968.499C548.483 961.079 549.262 963.919 541.571 960.269C539.237 959.155 532.406 952.978 530.483 952.763C524.572 952.18 529.31 958.979 513.909 947.766C513.268 947.303 512.596 946.815 511.895 946.301C511.112 945.722 514.572 946.07 511.805 944.169C493.805 932.135 490 933.076 469.321 923.02C457.305 917.231 438.697 909.225 420.398 905.824C413.831 904.385 407.547 903.246 402.069 902.493C403.19 897.624 383.016 896.679 375.182 900.33C368.254 900.301 360.971 900.754 354.39 902.351C348.371 903.832 342.681 906.56 337.501 909.651C333.789 911.931 335.376 909.191 334.835 909.366C326.297 912.385 324.018 919.064 322.004 921.048C317.859 925.19 313.947 929.314 310.1 933.356C293.95 950.868 282.319 969.716 271.927 992.207C271.477 993.198 273.582 996.35 267.485 1002.31C267.082 1002.69 270.616 993.12 263.564 1005.64C262.644 1007.27 261.592 1009.07 260.438 1011.01C252.84 1023.67 242.937 1044.3 236.513 1060.48C234.767 1065 231.797 1077.23 225.334 1084.99C224.475 1086.01 224.279 1084.3 222.929 1085.72C218.709 1090.19 219.947 1094.64 214.529 1099.42C214.378 1099.55 214.221 1099.68 214.059 1099.81C208.08 1104.76 198.994 1116.52 190.158 1134.63C189.876 1135.2 189.672 1140.68 186.26 1146.01C180.826 1154.52 172.537 1166.24 166.681 1174.99C163.878 1179.19 167.068 1177.44 166.606 1178.19C154.778 1196.83 144.055 1211.26 131.772 1226.84C125.124 1235.25 117.979 1243.93 109.695 1253.62C105.414 1258.71 94.6218 1274.8 84.3853 1282.96C73.1138 1291.78 77.5742 1276 56.0154 1299.85C48.8002 1307.6 43.9397 1321.75 30.2364 1332.56C27.239 1334.92 23.8265 1337.11 19.9066 1338.99C-11.2926 1365.32 -44.1264 1384.91 -77.9335 1406.7C-82.0517 1409.35 -86.1641 1411.99 -90.3042 1414.66C-92.0605 1415.79 -96.2262 1421.58 -100.506 1423.91C-106.868 1427.39 -111.001 1428.04 -115.607 1430.33C-132.763 1438.74 -148.617 1446.9 -166.478 1451.45C-168.77 1452.02 -171.024 1452.54 -173.34 1453.01C-181.125 1454.5 -178.638 1452.69 -187.934 1453.97C-197.182 1455.02 -203.44 1457.47 -216.203 1456.02C-225.871 1454.8 -234.69 1449.72 -246.784 1446.53C-248.059 1450.05 -256.44 1448.1 -271.504 1445C-271.633 1444.98 -271.764 1444.95 -271.895 1444.92C-274.836 1444.29 -272.089 1446.43 -273.512 1446.18C-279.406 1445.15 -284.016 1441.99 -289.301 1440.27C-290.588 1439.84 -291.218 1440.95 -292.3 1440.66C-301.366 1438.23 -312.76 1428.54 -315.293 1426.32C-315.38 1426.25 -315.456 1426.18 -315.522 1426.12C-323.237 1419.37 -328.073 1418.3 -334.23 1413.58C-340.349 1408.84 -330.111 1414.19 -337.471 1409.01C-350.893 1399.52 -368.096 1388.27 -382.374 1378.06C-384.285 1376.69 -386.134 1375.35 -387.908 1374.02C-393.887 1369.5 -390.836 1373.93 -391.716 1373.31C-398.606 1368.23 -405.498 1362.45 -408.944 1355.8L-408.928 1355.85C-409.754 1349.85 -409.605 1344.57 -410.051 1340.3C-398.463 1332.65 -408.239 1330.7 -396.204 1311.38C-395.227 1309.87 -390.545 1309.9 -393.167 1316.1C-395.71 1322.28 -401.779 1330.78 -403.513 1339.46C-403.721 1340.48 -403.686 1344.07 -402.939 1347.19C-402.24 1350.31 -400.942 1353.17 -400.759 1353.92C-400.672 1354.26 -400.59 1354.6 -400.512 1354.94L-401.363 1352.03C-399.113 1355 -397.453 1357.86 -397.027 1360.16C-396.54 1362.44 -397.046 1364.02 -396.919 1364.36C-394.609 1369.59 -387.209 1373.96 -381.458 1376.78C-378.42 1378.28 -375.815 1379.41 -374.612 1380.12C-358.584 1389.63 -345.793 1398.99 -332.127 1406.5C-323.177 1411.39 -320.203 1408.44 -313.497 1412.62C-311.903 1413.61 -310.379 1414.58 -308.959 1415.5C-292.575 1425.86 -285.468 1434.69 -269.435 1437.28C-266.883 1437.64 -264.179 1437.92 -261.228 1438.11C-255.821 1438.37 -259.736 1433.07 -242.415 1440.65C-241.379 1441.17 -228.384 1446.99 -220.394 1445.5C-219.402 1445.33 -219.321 1444.04 -218.056 1444.02C-209.564 1443.86 -203.913 1444.86 -194.681 1443.53C-187.148 1442.41 -178.469 1440.33 -169.747 1438.21C-167.891 1437.77 -166.04 1437.31 -164.191 1436.85C-158.055 1435.38 -149.394 1434.66 -146.195 1433.97C-137.223 1432.19 -129.569 1425.39 -123.649 1424.7C-117.579 1423.91 -126.207 1431.94 -112.103 1426.09C-113.191 1422.86 -113.693 1419.22 -114.507 1415.82C-103.934 1410.16 -93.5221 1404.28 -83.1479 1398.17C-65.1858 1387.59 -47.442 1376.59 -30.1912 1364.52C-26.816 1362.15 -31.3064 1363.07 -27.7346 1360.49C-12.6982 1349.59 1.11816 1340.97 15.754 1328.55C17.8986 1326.72 20.0365 1324.8 22.1621 1322.82C31.2538 1314.37 40.1227 1304.78 48.9117 1295.94C58.4627 1292.33 73.8156 1275.1 85.0715 1262.81C89.0383 1258.51 89.5449 1259.48 92.5327 1256.54C103.684 1245.34 96.2767 1248.76 98.6328 1245.12C107.281 1231.4 113.651 1232.33 123.886 1220.96C125.355 1219.31 126.912 1217.38 128.539 1215.13C129.254 1214.18 134.289 1200.24 135.194 1198.48C141.035 1187.36 137.559 1197.63 142.3 1191.42C150.911 1180.05 157.329 1172.37 165.513 1157.72C167.9 1153.44 172.092 1142.24 178.767 1135.27C179.647 1134.35 180.433 1135.65 181.031 1134.84C191.699 1120.1 188.249 1117.42 192.207 1107.83C194.264 1102.8 198.056 1097.02 201.429 1092.31C204.567 1087.9 207.379 1084.46 208.482 1083.24C214.369 1076.77 206.28 1089.42 206.212 1089.95C205.899 1095.92 211.084 1085.44 215.357 1077.61C219.677 1078.4 225.12 1067.07 219.749 1069.46C219.148 1069.76 216.363 1076.1 215.357 1077.61C215.326 1068.76 220.938 1056.46 230.806 1044.32C235.441 1038.6 234.468 1045.69 242.9 1025.54C246.841 1016.37 242.516 1018.64 245.894 1010.2C246.683 1008.28 247.573 1006.33 248.565 1004.36C256.933 987.611 269.591 968.272 279.645 952.08C283.738 945.555 278.284 950.967 281.089 946.464C286.503 937.914 292.601 930.641 299.696 923.357C302.304 920.701 304.953 917.946 307.707 915.013C308.594 914.072 305.164 915.095 308.355 911.983C319.698 901.115 332.752 890.512 350.308 886.186C369.619 882.187 386.191 884.035 404.67 886.109C409.944 886.77 416.504 887.658 423.513 888.826C438.409 890.877 457.035 896.22 467.852 901.284C486.736 909.633 505.983 922.411 522.84 934.072C531.003 939.723 538.739 945.077 545.611 949.514C559.238 958.358 557.197 954.995 563.578 958.034C575.882 963.875 592.983 980.823 595.206 983.182C595.273 983.246 583.694 975.468 589.264 980.477C591.759 984.422 595.071 983.095 595.206 983.182C596.702 984.692 619.034 1001.34 623.651 1004.4C626.172 1006.05 625.746 1003.79 627.043 1004.67C643.938 1016.2 660.572 1028.19 676.867 1040.81C690.323 1051.23 703.491 1062.05 716.413 1073.44C716.902 1073.9 715.007 1074.58 716.166 1075.63C732.394 1090.5 744.283 1098.33 758.458 1109.97C769.017 1118.67 777.24 1126.91 782.888 1134.64C784.815 1137.27 786.423 1139.82 787.751 1142.33C797.56 1152.11 809.547 1167.97 816.105 1177.07C822.717 1186.18 826.255 1185.04 826.934 1185.73C828.723 1187.53 830.418 1189.24 832.014 1190.8C846.263 1204.52 855.28 1212.76 871.383 1216.98C876.077 1218.12 880.969 1219.19 886.293 1220.05C900.127 1222.85 927.741 1222.14 942.938 1218.74C943.059 1218.72 943.18 1218.7 943.301 1218.67C955.359 1216.3 962.901 1215.36 973.875 1211.94C975.354 1211.47 973.447 1210.42 973.888 1210.24C985.662 1205.07 980.787 1210.24 983.52 1210.15C991.694 1209.74 997.37 1209.24 1007.53 1205.07C1009.64 1204.19 1011.93 1203.15 1014.45 1201.88C1017.92 1200.19 1025.47 1190.87 1030.89 1187.42C1038.02 1182.87 1036.31 1186.18 1043.47 1180.94C1044.07 1180.47 1043.33 1179.64 1047.71 1176.51C1051.03 1174.09 1054.3 1171.5 1057.5 1168.74C1073.76 1154.88 1087.83 1135.28 1100.35 1115.06C1102.4 1111.74 1098.18 1114.99 1101.09 1110.2C1102.43 1107.97 1103.78 1105.72 1105.15 1103.41C1117.55 1082.76 1129.41 1060.26 1139.96 1039.52C1142.82 1033.92 1142.34 1038.04 1143.27 1036.96C1148.98 1030.28 1150.8 1017.77 1151.5 1015.99C1168.96 971.862 1184.98 938.91 1200.69 892.637C1201.09 891.464 1202.09 886.336 1203.75 880.268C1205.48 873.804 1208.07 866.049 1211.22 862.216C1211.61 861.743 1217.76 854.226 1218.37 846.047C1218.41 845.527 1214.94 850.291 1218.44 841.065C1221.91 831.901 1226.18 816.636 1232.41 804.487C1234.36 800.664 1240.76 792.188 1242.58 779.268C1242.69 778.423 1243.74 757.895 1249.8 752.599C1250.79 751.746 1254.41 754.224 1257.35 739.139C1257.9 736.252 1255.28 740.94 1257.24 733.495C1260.24 722.076 1266.37 707.748 1269.29 693.448C1269.79 690.965 1270.57 679.884 1275.4 672.447C1276.16 671.282 1276.67 674.16 1278.29 669.911C1285.99 649.701 1292.39 627.966 1300.35 607.493C1303.17 600.227 1304.05 604.721 1307.22 597.251C1310.4 589.759 1316.18 574.473 1317.9 566.101C1319.62 557.749 1313.21 565.39 1317.01 553.209C1333.43 500.485 1352.79 449.188 1370.62 396.903C1372.38 391.742 1371.45 392.731 1371.76 390.574C1371.94 389.455 1372.43 387.509 1373.69 383.729C1384.86 350.056 1402.66 295.176 1416.46 258.303C1419.22 250.029 1421.26 241.657 1422.7 235.13C1422.77 234.839 1422.83 234.551 1422.89 234.278C1423.26 232.752 1423.23 232.24 1423.51 233.806C1423.56 235.176 1425.94 240.118 1428.88 241.711C1431.65 243.404 1432.91 243.251 1433.5 243.286C1434.13 243.261 1434.26 243.126 1434.38 243.016C1434.55 242.783 1434.51 242.554 1434.39 242.332C1434.26 242.095 1433.98 241.927 1432.98 241.452C1432.04 241.028 1430.11 239.848 1429.02 238.392C1427.94 236.979 1427.77 236.052 1428 236.207C1428.14 236.274 1428.39 236.604 1428.98 237.241C1429.56 237.86 1430.64 238.822 1431.9 239.4C1433.15 239.986 1434.18 240.049 1434.43 240C1434.7 239.95 1434.3 239.861 1433.49 239.943C1425.57 241.034 1415.18 250.57 1413.12 251.58C1411.97 252.17 1410.85 252.745 1409.67 253.345C1388.3 264.397 1371.51 271.311 1351.4 282.214C1347.02 284.604 1352.15 283.885 1348.42 285.898C1335.65 292.808 1321.74 299.149 1309.44 305.642C1303.92 308.556 1305.54 309.192 1300.38 311.728C1288.04 317.803 1276.94 322.844 1264.38 327.782C1263.23 328.231 1269.88 323.078 1260.75 327.593C1253.64 331.102 1245.56 334.772 1237.23 338.645C1228.23 342.836 1218.94 347.26 1210.25 352.033C1205.29 354.757 1206.34 357.59 1194.42 360.766C1191.92 361.414 1193.42 356.851 1181.76 365.45C1179.83 366.91 1159.58 380.306 1147.66 382.235C1144.51 382.766 1136.11 383.023 1129.93 385.946C1129.1 386.353 1133.14 386.488 1127.93 388.703C1113.55 394.759 1098.33 400.335 1083.01 405.643C1078.69 407.139 1074.38 408.613 1070.07 410.073C1064.85 411.837 1073.21 410.995 1065.36 413.565C1043.78 420.657 1015.84 427.119 993.597 430.276C985.416 431.444 990.826 429.148 990.205 429.102C989.077 429.003 987.978 428.973 986.976 428.988C979.272 429.106 974.884 432.322 972.04 432.864C956.811 435.783 942.723 435.736 928.648 434.299C924.725 433.909 920.712 433.538 916.504 433.217C911.488 432.82 914.878 434.736 913.866 434.774C903.327 435.018 911.376 433.068 904.834 432.008C886.505 428.913 865.666 425.752 846.279 418.875C839.158 416.224 846.505 421.055 840.056 418.517C833.359 415.774 826.537 412.353 819.94 407.738C799.34 392.475 769.644 371.93 769.858 332.163C770.106 327.825 770.512 323.337 771.14 318.899C772.275 311.534 773.071 316.374 773.589 314.892C777.044 304.799 778.957 289.165 780.231 285.624C785.402 269.839 790.046 264.871 798.073 253.213C802.992 246.348 808.509 239.84 814.561 233.625C832.789 214.95 853.617 197.218 875.364 181.096C901.554 161.732 928.863 145.803 949.369 130.508C950.915 129.339 952.432 128.185 953.931 127.038C979.787 107.333 1000.93 88.7465 1015.94 66.7614C1028.13 49.0328 1040.22 27.4986 1039.15 13.3995C1039.16 12.958 1039.06 15.2253 1040.9 18.4414C1042.81 21.6987 1045.59 23.3351 1046.92 23.9181C1048.35 24.5436 1048.94 24.6048 1049.28 24.6786C1049.61 24.7372 1049.67 24.7304 1049.63 24.7278C1049.36 24.6903 1047.89 24.7144 1046.5 24.8361C1043.49 25.0856 1040.09 25.5716 1036.56 26.1453C1029.55 27.2964 1022.18 28.7777 1014.66 30.3856C1010.16 31.3547 1015 32.233 1011.27 33.0674C995.611 36.5633 980.055 40.2208 964.27 43.9775C930.692 51.9927 896.978 60.2688 863.194 69.3853C859.131 70.4799 865.456 70.6619 858.93 72.4829C845.601 76.2168 828.6 80.5839 814.902 83.646C808.249 85.1356 816.696 81.3214 809.998 82.8544C794.371 86.4313 777.75 90.7863 761.951 95.4029C755.246 97.3679 765.89 96.3211 757.135 98.7428C697.411 115.349 639.06 132.367 578.751 148.878C574.654 150.003 569.9 147.656 561.485 151.097C561.149 152.274 561.552 153.401 561.603 154.527C561.328 154.617 561.053 154.708 560.779 154.798C475.45 182.534 393.154 214.173 308.943 248.13C305.372 249.54 312.272 248.892 305.334 251.637C296.767 255.02 288.227 258.372 279.661 261.651C248.124 273.647 216.169 285.143 180.713 291.65C176.2 292.414 177.835 288.744 164.807 291.717C162.583 292.377 142.52 295.686 137.177 296.601C136.453 296.758 140.369 298.104 133.675 298.592C112.54 299.97 89.3664 298.296 67.5311 289.415C49.3532 282.059 33.8065 270.285 21.3125 257.439C16.909 252.846 22.8884 256.414 19.8152 253.14C-1.74509 229.863 -19.8938 201.986 -32.3773 176.3C-40.6016 159.072 -34.6097 163.872 -36.784 153.65C-37.0966 152.202 -42.4522 141.832 -41.2357 140.519C-38.2022 137.195 -31.4897 140.054 -28.5655 135.918C-27.9314 135.043 -36.0586 121.689 -29.7147 128.799C-29.2775 129.303 -23.3701 138.951 -21.3759 141.024C-19.9926 142.473 -20.0946 138.607 -17.6426 141.754C-15.1895 144.896 -14.4456 149.376 -10.6436 154.675C-6.82327 159.927 -6.51114 156.573 -0.0695496 167.585ZM847.337 1213.59C854.57 1220.03 858.409 1215.23 849.464 1211.5C849.036 1211.31 846.979 1213.25 847.337 1213.59ZM-55.4435 1387.02C-42.6847 1381.91 -37.2251 1373.49 -46.2329 1377.07C-55.2218 1380.6 -59.3131 1388.56 -55.4435 1387.02ZM-178.542 1448.71C-173.218 1448.41 -169.674 1447.01 -167.915 1445.63C-166.053 1444.12 -166.369 1442.65 -168.734 1442.32C-170.623 1442.07 -173.699 1442.47 -178.143 1443.85C-179.038 1444.13 -179.442 1448.75 -178.542 1448.71ZM-13.3229 194.005C-13.3427 193.85 -17.5842 186.537 -17.7401 186.396C-21.6805 183.465 -13.1801 198.141 -13.3229 194.005ZM-310.188 1424.18C-306.526 1427.7 -293.463 1433.35 -298.134 1429.16C-301.86 1425.86 -314.778 1419.86 -310.188 1424.18ZM1207.8 917.765C1207.94 917.657 1210.15 912.008 1209.64 911.933C1207.97 911.778 1205.43 919.784 1207.8 917.765ZM-359.092 1253.39C-364.627 1261.95 -369.867 1269.25 -373.989 1274.64C-382.795 1286.48 -387.145 1288.37 -378.312 1272.21C-378.306 1272.2 -378.286 1272.16 -378.279 1272.15C-377.151 1270.15 -375.803 1267.89 -374.208 1265.36C-371.437 1260.97 -376.051 1270.94 -376.368 1273.26C-376.371 1273.27 -376.381 1273.28 -376.384 1273.29C-376.453 1273.78 -376.347 1273.92 -375.965 1273.52C-375.962 1273.52 -375.955 1273.51 -375.952 1273.5C-375.709 1273.26 -375.358 1272.8 -374.87 1272.09C-365.742 1258.79 -363.44 1247.61 -352.95 1234.91C-350.988 1232.6 -357.962 1251.73 -359.117 1253.45C-359.109 1253.43 -359.101 1253.41 -359.092 1253.39ZM848.381 1222.69C848.465 1222.96 855.913 1226.69 856.177 1226.58C858.615 1226.53 855.958 1224.99 853.178 1223.61C850.388 1222.24 847.362 1220.95 848.381 1222.69ZM1327.2 588.208C1327.49 587.855 1333.83 569.57 1333.87 568.954C1334.14 558.426 1321.37 595.278 1327.2 588.208ZM401.758 902.325C392.649 903.107 382.251 902.663 375.223 900.332C384 900.433 392.918 901.134 401.758 902.325Z"
        fill="#EE1FC8" />
</svg>