<?xml version="1.0" encoding="iso-8859-1"?>
<!-- Uploaded to: SVG Repo, www.svgrepo.com, Generator: SVG Repo Mixer Tools -->
<svg version="1.1" id="Layer_1" xmlns="http://www.w3.org/2000/svg" xmlns:xlink="http://www.w3.org/1999/xlink" 
	 viewBox="0 0 512 512" xml:space="preserve">
<path style="fill:#FFB819;" d="M454.184,220.551h-86.927l0,0l-17.25-21.031l17.25-26.194v-30.621c0-12.094-9.895-21.99-21.99-21.99
	H35.936c-12.094,0-21.99,9.895-21.99,21.99v179.64c0,12.094,9.895,21.99,21.99,21.99h461.646V263.95
	C497.582,239.981,478.152,220.551,454.184,220.551z"/>
<g>
	<rect x="13.946" y="144.772" style="fill:#333E48;" width="353.312" height="16.492"/>
	<path style="fill:#333E48;" d="M367.257,256.584H41.038c-4.555,0-8.246-3.692-8.246-8.246s3.691-8.246,8.246-8.246h326.219
		c4.555,0,8.246,3.692,8.246,8.246S371.812,256.584,367.257,256.584z"/>
	<path style="fill:#333E48;" d="M367.257,281.143H41.038c-4.555,0-8.246-3.692-8.246-8.246c0-4.554,3.691-8.246,8.246-8.246h326.219
		c4.555,0,8.246,3.692,8.246,8.246C375.503,277.451,371.812,281.143,367.257,281.143z"/>
	<path style="fill:#333E48;" d="M41.038,348.091c0,4.233-3.463,7.696-7.696,7.696H7.696c-4.233,0-7.696-3.463-7.696-7.696v-20.095
		c0-4.233,3.463-7.696,7.696-7.696h25.645c4.233,0,7.696,3.463,7.696,7.696C41.038,327.996,41.038,348.091,41.038,348.091z"/>
	<path style="fill:#333E48;" d="M512,348.091c0,4.233-3.463,7.696-7.696,7.696h-22.314c-4.233,0-7.696-3.463-7.696-7.696v-20.095
		c0-4.233,3.463-7.696,7.696-7.696h22.314c4.233,0,7.696,3.463,7.696,7.696V348.091z"/>
</g>
<path style="opacity:0.2;enable-background:new    ;" d="M433.731,344.334c0-30.664-24.854-55.52-55.519-55.52
	c-30.664,0-55.519,24.856-55.519,55.52H433.731z"/>
<circle style="fill:#333E48;" cx="378.216" cy="344.331" r="46.955"/>
<circle style="fill:#D1D3D3;" cx="378.216" cy="344.331" r="21.586"/>
<path style="opacity:0.2;enable-background:new    ;" d="M172.811,344.334c0-30.664-24.854-55.52-55.519-55.52
	c-30.664,0-55.519,24.856-55.519,55.52H172.811z"/>
<circle style="fill:#333E48;" cx="117.294" cy="344.331" r="46.954"/>
<circle style="fill:#D1D3D3;" cx="117.294" cy="344.331" r="21.586"/>
<g>
	<path style="fill:#00B3E3;" d="M112.751,215.053c0,3.024-2.474,5.497-5.497,5.497H46.535c-3.024,0-5.497-2.474-5.497-5.497v-36.232
		c0-3.024,2.474-5.497,5.497-5.497h60.719c3.024,0,5.497,2.474,5.497,5.497C112.751,178.821,112.751,215.053,112.751,215.053z"/>
	<path style="fill:#00B3E3;" d="M207.016,215.053c0,3.024-2.474,5.497-5.497,5.497h-60.72c-3.024,0-5.497-2.474-5.497-5.497v-36.232
		c0-3.024,2.474-5.497,5.497-5.497h60.72c3.024,0,5.497,2.474,5.497,5.497L207.016,215.053L207.016,215.053z"/>
</g>
<path style="opacity:0.2;enable-background:new    ;" d="M201.519,173.325h-60.72c-3.024,0-5.497,2.474-5.497,5.497v9.346
	c0-3.024,2.474-5.497,5.497-5.497h60.72c3.024,0,5.497,2.474,5.497,5.497v-9.346C207.016,175.799,204.542,173.325,201.519,173.325z"
	/>
<path style="fill:#D68231;" d="M301.284,338.837c0,3.024-2.474,5.497-5.497,5.497h-60.722c-3.024,0-5.497-2.474-5.497-5.497V178.823
	c0-3.024,2.474-5.497,5.497-5.497h60.722c3.024,0,5.497,2.474,5.497,5.497V338.837z"/>
<path style="opacity:0.2;enable-background:new    ;" d="M295.786,173.325h-60.722c-3.024,0-5.497,2.474-5.497,5.497v9.346
	c0-3.024,2.474-5.497,5.497-5.497h60.722c3.024,0,5.497,2.474,5.497,5.497v-9.346C301.284,175.799,298.81,173.325,295.786,173.325z"
	/>
<path style="fill:#00B3E3;" d="M367.257,220.551h-37.925c-3.024,0-5.497-2.474-5.497-5.497v-36.232c0-3.024,2.474-5.497,5.497-5.497
	h37.925V220.551z"/>
<path style="opacity:0.2;enable-background:new    ;" d="M107.254,173.325H46.535c-3.024,0-5.497,2.474-5.497,5.497v9.346
	c0-3.024,2.474-5.497,5.497-5.497h60.719c3.024,0,5.497,2.474,5.497,5.497v-9.346C112.751,175.799,110.277,173.325,107.254,173.325z
	"/>
<path style="opacity:0.2;enable-background:new    ;" d="M329.332,173.325c-3.024,0-5.497,2.474-5.497,5.497v9.346
	c0-3.024,2.474-5.497,5.497-5.497h37.925v-9.346H329.332z"/>
<g>
	<path style="fill:#FFFFFF;" d="M252.702,298.562c-4.555,0-8.246-3.692-8.246-8.246v-29.341c0-4.554,3.691-8.246,8.246-8.246
		c4.555,0,8.246,3.692,8.246,8.246v29.341C260.948,294.871,257.257,298.562,252.702,298.562z"/>
	<path style="fill:#FFFFFF;" d="M278.149,298.562c-4.555,0-8.246-3.692-8.246-8.246v-29.341c0-4.554,3.691-8.246,8.246-8.246
		c4.555,0,8.246,3.692,8.246,8.246v29.341C286.396,294.871,282.703,298.562,278.149,298.562z"/>
	<path style="fill:#FFFFFF;" d="M252.702,237.106c-4.555,0-8.246-3.692-8.246-8.246v-29.341c0-4.554,3.691-8.246,8.246-8.246
		c4.555,0,8.246,3.692,8.246,8.246v29.341C260.948,233.415,257.257,237.106,252.702,237.106z"/>
	<path style="fill:#FFFFFF;" d="M278.149,237.106c-4.555,0-8.246-3.692-8.246-8.246v-29.341c0-4.554,3.691-8.246,8.246-8.246
		c4.555,0,8.246,3.692,8.246,8.246v29.341C286.396,233.415,282.703,237.106,278.149,237.106z"/>
</g>
<rect x="458.215" y="293.578" style="fill:#00B3E3;" width="39.367" height="26.722"/>
<path style="fill:#FFFFFF;" d="M464.448,320.299h-9.055c-2.11,0-3.836-1.725-3.836-3.835v-19.051c0-2.11,1.726-3.835,3.836-3.835
	h9.055V320.299z"/>
</svg>